<svg xmlns="http://www.w3.org/2000/svg" xmlns:xlink="http://www.w3.org/1999/xlink" viewBox="0 0 600 600"><defs><style>.cls-1{fill:none;}.cls-2{fill:#f5a81c;}.cls-3{clip-path:url(#clip-path);}.cls-4{fill:#ea2150;}.cls-5{fill:#005da6;}.cls-6{fill:#009b4a;}.cls-7{stroke:#fff;stroke-width:4.79px;fill-rule:evenodd;}.cls-8{fill:#fff;}</style><clipPath id="clip-path"><path id="rect7267" class="cls-1" d="M255.45,55.1c10.6,0,24.3,0,42.3.1,72,.3,75.1.6,87.1,5.7,7.5,3.3,19.2,13.1,23.9,20.2,7.6,11.6,7.8,13.2,26.1,150.2,9.5,71.6,17.6,134.7,17.8,140.2,1.7,41.7-17.9,68-56,75-5.6,1.1-18.1,1.7-33.3,1.8l-24.3.1L227,447.6c-38-.5-52.8-4.6-68.3-18.8-14.3-13.1-20.8-31.6-20-55.9.3-7.5,10.6-83.9,12.2-89.6,0-.2.4-.6.6-.9,2.2-17,4.1-31.7,6.6-50.9C176.15,95.4,176.45,93.8,184,82.3c2.5-3.8,7.1-8.4,12-12.3,5-4.3,10.7-8.3,14.6-9.9,9.1-3.9,13.1-4.9,44.9-5Z"/></clipPath></defs><g id="Layer_1" data-name="Layer 1"><path id="rect15141" class="cls-2" d="M267.05,452.9l-.3,15.8c-.3,41.8.1,48.3,1.1,50.6,1.9,4.2,8.3,10.2,12.8,11.8,5,1.9,13,2.1,17.9.3,5.9-2,11.7-7.2,13.9-12.4,1.2-3,1.7-6.9,2-50.8l.3-15.1-23.9-.1Z"/><g class="cls-3"><polygon class="cls-2" points="511.23 171.75 102.4 141.36 102.4 48.05 511.23 48.05 511.23 171.75"/><polygon class="cls-4" points="509.72 222.86 102.4 245.44 102.4 152.12 511.23 182.51 509.72 222.86"/><polygon class="cls-5" points="511.23 349.52 102.4 313.24 102.4 256.2 509.72 233.62 511.23 349.52"/><polygon class="cls-6" points="511.23 453.6 102.4 453.6 102.4 324 511.23 360.28 511.23 453.6"/></g><g id="g267"><path id="path259" d="M177.54,74.29c-6.76,10.51-8.52,18.34-16.86,75.15-4.46,30.45-7.9,56.29-7.7,57.51a12.18,12.18,0,0,0,3.25,4.77,10.35,10.35,0,0,0,13.89.27,13.59,13.59,0,0,0,3.37-4.42c.44-1,4.3-26.34,8.69-56.22,4.55-31.17,9-56.74,10.21-60.14,4.49-11.55,12.16-18.52,24.93-22.25,5.86-1.77,15.69-2,76-1.73,59.2.37,70.23.75,75.71,2.38,14.79,4.58,23.56,14,26.74,29.08,2.28,10.75,36.55,268.91,36.85,277.85.79,22.07-6.09,39.33-19.1,47.75-6.16,4.08-15.94,7.44-25,8.74-7.34,1.06-164.49.76-184.21-.3-15.52-.85-26.76-3.87-35.2-9.25-12.92-8.3-19.79-25.31-19.08-47.3.1-4.31,2.94-26.28,6.22-48.64s5.75-41.84,5.47-43.12-1.75-3.68-3.31-5.1a10.22,10.22,0,0,0-13.89,0c-1.58,1.41-3.09,3.14-3.23,3.91-1.61,5.91-12.36,84.56-12.63,92.34-.87,25.07,5.92,44.08,20.73,57.59,16,14.62,31.36,18.81,70.75,19.34l24.79.38-.36,12.23c-.27,31.44,0,46.94.66,51,1.5,10.42,5.45,17,14.8,24.89,6.59,5.63,8,6.41,15.19,8.7a50.89,50.89,0,0,0,30.34-.1c6.14-2,8.14-3.17,14.37-8.35,9.46-7.67,13.34-14.21,15.19-24.94.6-4.11,1.14-19.6,1.12-50.92v-12l25.14-.06c15.75-.11,28.64-.75,34.49-1.88,39.51-7.13,59.84-34.22,58-77.25-.25-5.66-8.6-70.72-18.46-144.53-18.91-141.18-19.19-142.85-27-154.79-4.8-7.22-16.92-17.38-24.73-20.77-12.43-5.27-15.71-5.54-90.29-5.86S215.6,48,203.11,53.13C195.61,56.25,181.86,67.62,177.54,74.29ZM314.46,468.23c-.28,43.85-.82,47.83-2,50.79-2.24,5.19-8,10.37-13.89,12.4-4.93,1.71-12.91,1.54-17.95-.35-4.48-1.63-10.93-7.65-12.82-11.83-1-2.32-1.36-8.82-1.09-50.62l.31-15.76,23.79.12,23.94.12Z"/><path id="path263" d="M147.27,243.12c-1,3.08.17,6.63,3,9.34,3.47,3.17,11.1,3.15,14.75-.11s3.77-10.15.51-13.12C159.44,233.67,149.67,235.74,147.27,243.12Z"/></g><g id="g17466"><path id="path4379" class="cls-7" d="M352.85,265.9c-13.9.2-28.2,5-41.1,14-6,4.1-7.6,4.7-11.5,4.7s-5.4-.6-11.6-4.8a83.82,83.82,0,0,0-27.2-12.2c-13.4-3-23.2-2.3-34.6,2.5-17.4,7.5-34.2,20.8-63.1,50.4-19.1,19.6-26.6,25.6-37.9,30.9-21.2,9.9-41.1,6-50.6-10.2-2-3.3-2.3-5.2-2.3-12.9,0-8,.3-9.7,2.6-13.9,3.2-5.8,1.7-5.7-3.3.3-5.5,6.5-8.3,15.3-8.2,25.9.2,22.9,12.2,40.9,34.1,51.1,15.8,7.4,32.6,10.3,52.4,8.8,38.1-2.7,80.8-20.4,131.6-54.4,18.1-12.2,17.9-12.2,33.9-1.3,59.5,40.4,110.8,59.1,152.5,55.7a95.86,95.86,0,0,0,33.3-8.7c21.9-10.2,33.9-28.3,34.1-51.2.1-10.6-2.6-19.4-8.2-25.9-5-6-6.5-6.1-3.3-.3,2.3,4.2,2.6,5.9,2.6,13.9,0,7.7-.3,9.6-2.3,12.9-11.8,20-39.3,20.8-64.7,1.7-3.6-2.6-14.3-12.8-23.8-22.5-28.1-28.6-44.3-41.9-60.8-49.5-8.5-3.8-13.8-5-22.6-5Z"/><path id="path79" class="cls-8" d="M353.45,293.7c-6.8.7-8.7,3.5-7.3,6.1s3.7.6,11.3,1.1a35.69,35.69,0,0,1,11.6,2.2c9.8,3.7,22.8,14.8,40.5,34.6,6.4,7.1,10.4,11,12.2,11.7,7.2,3,8.3-2,3.2-7.1-2.4-2.4-17.1-19.3-25.8-27.3-16.1-15-23.7-20.5-38.2-21.2A48.16,48.16,0,0,0,353.45,293.7Z"/></g></g></svg>